<?xml version="1.0" encoding="UTF-8"?>
<!-- Generated by Pixelmator Pro 3.5.6 -->
<svg width="800" height="800" viewBox="0 0 800 800" xmlns="http://www.w3.org/2000/svg">
    <g id="Group">
        <path id="Path" fill="#ffffff" stroke="none" d="M 786.206909 731.034485 L 786.206909 551.724121 C 786.206909 544.106934 780.031006 537.93103 772.413818 537.93103 L 593.103455 537.93103 L 593.103455 413.793091 C 600.720703 413.793091 606.896545 407.617249 606.896545 400 C 606.896545 392.382751 600.720703 386.206909 593.103455 386.206909 L 551.724121 386.206909 L 551.724121 317.241394 C 559.34137 317.241394 565.517212 311.065521 565.517212 303.448273 C 565.517212 295.831024 559.34137 289.655182 551.724121 289.655182 L 549.513794 289.655182 C 544.472412 226.631042 500.306915 174.467224 441.379303 157.532776 L 441.379303 96.551697 C 441.379303 88.934509 435.203461 82.758606 427.586212 82.758606 L 413.793091 82.758606 L 413.793091 55.172424 C 413.793091 47.555176 407.617249 41.379333 400 41.379333 C 392.382751 41.379333 386.206909 47.555176 386.206909 55.172424 L 386.206909 82.758606 L 372.413788 82.758606 C 364.796539 82.758606 358.620697 88.934509 358.620697 96.551697 L 358.620697 157.532776 C 299.693115 174.468994 255.529312 226.631042 250.486206 289.655182 L 248.275864 289.655182 C 240.658615 289.655182 234.482758 295.831024 234.482758 303.448273 C 234.482758 311.065521 240.658615 317.241394 248.275864 317.241394 L 248.275864 386.206909 L 206.896545 386.206909 C 199.279312 386.206909 193.103455 392.382751 193.103455 400 C 193.103455 407.617249 199.279312 413.793091 206.896545 413.793091 L 206.896545 537.93103 L 27.586206 537.93103 C 19.968966 537.93103 13.793103 544.106934 13.793103 551.724121 L 13.793103 731.034485 C 6.175862 731.034485 0 737.210327 0 744.827576 C 0 752.444824 6.175862 758.620667 13.793103 758.620667 L 786.206909 758.620667 C 793.824158 758.620667 800 752.444824 800 744.827576 C 800 737.210327 793.824158 731.034485 786.206909 731.034485 Z M 248.275864 565.517212 L 248.275864 689.655151 L 193.103455 689.655151 L 193.103455 565.517212 L 248.275864 565.517212 Z M 606.896545 565.517212 L 606.896545 689.655151 L 551.724121 689.655151 L 551.724121 565.517212 L 606.896545 565.517212 Z M 524.137939 689.655151 L 496.551727 689.655151 L 496.551727 565.517212 L 524.137939 565.517212 L 524.137939 689.655151 Z M 468.965515 689.655151 L 441.379303 689.655151 L 441.379303 565.517212 L 468.965515 565.517212 L 468.965515 689.655151 Z M 413.793091 689.655151 L 386.206909 689.655151 L 386.206909 565.517212 L 413.793091 565.517212 L 413.793091 689.655151 Z M 358.620697 689.655151 L 331.034485 689.655151 L 331.034485 565.517212 L 358.620697 565.517212 L 358.620697 689.655151 Z M 303.448273 689.655151 L 275.862061 689.655151 L 275.862061 565.517212 L 303.448273 565.517212 L 303.448273 689.655151 Z M 248.275864 717.241394 L 248.275864 731.034485 L 193.103455 731.034485 L 193.103455 717.241394 L 248.275864 717.241394 Z M 275.862061 717.241394 L 524.137939 717.241394 L 524.137939 731.034485 L 275.862061 731.034485 L 275.862061 717.241394 Z M 551.724121 717.241394 L 606.896545 717.241394 L 606.896545 731.034485 L 551.724121 731.034485 L 551.724121 717.241394 Z M 634.482788 717.241394 L 758.620667 717.241394 L 758.620667 731.034485 L 634.482788 731.034485 L 634.482788 717.241394 Z M 758.620667 689.655151 L 634.482788 689.655151 L 634.482788 565.517212 L 758.620667 565.517212 L 758.620667 689.655151 Z M 565.517212 413.793091 L 565.517212 496.551727 L 551.724121 496.551727 L 551.724121 413.793091 L 565.517212 413.793091 Z M 275.862061 496.551727 L 275.862061 413.793091 L 303.448273 413.793091 L 303.448273 496.551727 L 275.862061 496.551727 Z M 331.034485 413.793091 L 358.620697 413.793091 L 358.620697 496.551727 L 331.034485 496.551727 L 331.034485 413.793091 Z M 386.206909 413.793091 L 413.793091 413.793091 L 413.793091 496.551727 L 386.206909 496.551727 L 386.206909 413.793091 Z M 441.379303 413.793091 L 468.965515 413.793091 L 468.965515 496.551727 L 441.379303 496.551727 L 441.379303 413.793091 Z M 496.551727 413.793091 L 524.137939 413.793091 L 524.137939 496.551727 L 496.551727 496.551727 L 496.551727 413.793091 Z M 386.206909 110.344849 L 413.793091 110.344849 L 413.793091 152.36377 C 409.25 151.948242 404.650024 151.724121 400 151.724121 C 395.349976 151.724121 390.75 151.948242 386.206909 152.36377 L 386.206909 110.344849 Z M 400 179.310364 C 463.425842 179.310364 515.731018 227.801697 521.813782 289.655182 L 278.186218 289.655182 C 284.268982 227.801697 336.574127 179.310364 400 179.310364 Z M 275.862061 317.241394 L 524.137939 317.241394 L 524.137939 386.206909 L 275.862061 386.206909 L 275.862061 317.241394 Z M 248.275864 413.793091 L 248.275864 496.551727 L 234.482758 496.551727 L 234.482758 413.793091 L 248.275864 413.793091 Z M 234.482758 524.137939 L 565.517212 524.137939 L 565.517212 537.93103 L 234.482758 537.93103 L 234.482758 524.137939 Z M 165.517242 565.517212 L 165.517242 689.655151 L 41.379311 689.655151 L 41.379311 565.517212 L 165.517242 565.517212 Z M 41.379311 717.241394 L 165.517242 717.241394 L 165.517242 731.034485 L 41.379311 731.034485 L 41.379311 717.241394 Z"/>
        <path id="path1" fill="#ffffff" stroke="none" d="M 317.241394 331.034485 C 309.624146 331.034485 303.448273 337.210358 303.448273 344.827576 L 303.448273 358.620697 C 303.448273 366.237915 309.624146 372.413788 317.241394 372.413788 C 324.858612 372.413788 331.034485 366.237915 331.034485 358.620697 L 331.034485 344.827576 C 331.034485 337.210358 324.858612 331.034485 317.241394 331.034485 Z"/>
        <path id="path2" fill="#ffffff" stroke="none" d="M 482.758606 331.034485 C 475.141388 331.034485 468.965515 337.210358 468.965515 344.827576 L 468.965515 358.620697 C 468.965515 366.237915 475.141388 372.413788 482.758606 372.413788 C 490.375854 372.413788 496.551727 366.237915 496.551727 358.620697 L 496.551727 344.827576 C 496.551727 337.210358 490.375854 331.034485 482.758606 331.034485 Z"/>
        <path id="path3" fill="#ffffff" stroke="none" d="M 372.413788 331.034485 C 364.796539 331.034485 358.620697 337.210358 358.620697 344.827576 L 358.620697 358.620697 C 358.620697 366.237915 364.796539 372.413788 372.413788 372.413788 C 380.031036 372.413788 386.206909 366.237915 386.206909 358.620697 L 386.206909 344.827576 C 386.206909 337.210358 380.031036 331.034485 372.413788 331.034485 Z"/>
        <path id="path4" fill="#ffffff" stroke="none" d="M 124.137932 675.862061 C 131.755173 675.862061 137.93103 669.686218 137.93103 662.06897 L 137.93103 648.275879 C 137.93103 640.65863 131.755173 634.482788 124.137932 634.482788 C 116.520691 634.482788 110.344826 640.65863 110.344826 648.275879 L 110.344826 662.06897 C 110.344826 669.686218 116.520691 675.862061 124.137932 675.862061 Z"/>
        <path id="path5" fill="#ffffff" stroke="none" d="M 220.689651 675.862061 C 228.3069 675.862061 234.482758 669.686218 234.482758 662.06897 L 234.482758 648.275879 C 234.482758 640.65863 228.3069 634.482788 220.689651 634.482788 C 213.072418 634.482788 206.896545 640.65863 206.896545 648.275879 L 206.896545 662.06897 C 206.896545 669.686218 213.072418 675.862061 220.689651 675.862061 Z"/>
        <path id="path6" fill="#ffffff" stroke="none" d="M 579.310364 675.862061 C 586.927612 675.862061 593.103455 669.686218 593.103455 662.06897 L 593.103455 648.275879 C 593.103455 640.65863 586.927612 634.482788 579.310364 634.482788 C 571.693115 634.482788 565.517212 640.65863 565.517212 648.275879 L 565.517212 662.06897 C 565.517212 669.686218 571.693115 675.862061 579.310364 675.862061 Z"/>
        <path id="path7" fill="#ffffff" stroke="none" d="M 82.758621 675.862061 C 90.375862 675.862061 96.551727 669.686218 96.551727 662.06897 L 96.551727 648.275879 C 96.551727 640.65863 90.375862 634.482788 82.758621 634.482788 C 75.14138 634.482788 68.965515 640.65863 68.965515 648.275879 L 68.965515 662.06897 C 68.965515 669.686218 75.14138 675.862061 82.758621 675.862061 Z"/>
        <path id="path8" fill="#ffffff" stroke="none" d="M 717.241394 675.862061 C 724.858643 675.862061 731.034485 669.686218 731.034485 662.06897 L 731.034485 648.275879 C 731.034485 640.65863 724.858643 634.482788 717.241394 634.482788 C 709.624146 634.482788 703.448303 640.65863 703.448303 648.275879 L 703.448303 662.06897 C 703.448303 669.686218 709.624146 675.862061 717.241394 675.862061 Z"/>
        <path id="path9" fill="#ffffff" stroke="none" d="M 675.862061 675.862061 C 683.479309 675.862061 689.655151 669.686218 689.655151 662.06897 L 689.655151 648.275879 C 689.655151 640.65863 683.479309 634.482788 675.862061 634.482788 C 668.244812 634.482788 662.06897 640.65863 662.06897 648.275879 L 662.06897 662.06897 C 662.06897 669.686218 668.244812 675.862061 675.862061 675.862061 Z"/>
        <path id="path10" fill="#ffffff" stroke="none" d="M 427.586212 331.034485 C 419.968964 331.034485 413.793091 337.210358 413.793091 344.827576 L 413.793091 358.620697 C 413.793091 366.237915 419.968964 372.413788 427.586212 372.413788 C 435.203461 372.413788 441.379303 366.237915 441.379303 358.620697 L 441.379303 344.827576 C 441.379303 337.210358 435.203461 331.034485 427.586212 331.034485 Z"/>
    </g>
</svg>
