<?xml version="1.0" encoding="UTF-8"?>
<!-- Generated by Pixelmator Pro 3.5.7 -->
<svg width="512" height="512" viewBox="0 0 512 512" xmlns="http://www.w3.org/2000/svg">
    <g id="Group">
        <path id="Path" fill="#ffffff" stroke="none" d="M 505 295.600006 L 398 295.600006 L 398 251.864014 C 398.000092 248.763611 395.960724 246.032532 392.988007 245.151978 L 361.812012 235.90802 L 361.812012 187.727997 L 366 187.727997 C 374.279694 187.71698 380.988983 181.00769 381 172.727997 L 381 161.623993 C 380.988983 153.344299 374.279694 146.63501 366 146.623993 L 359.640015 146.623993 C 351.001678 106.907837 317.165436 77.673615 276.615997 74.891998 L 262.868011 5.623993 C 262.217499 2.347443 259.342499 -0.012878 256.002014 -0.012878 C 252.661514 -0.012878 249.786484 2.347443 249.136002 5.623993 L 235.388 74.891998 C 194.837051 77.671906 160.998734 106.906494 152.360001 146.623993 L 146 146.623993 C 137.719391 146.632813 131.00882 153.343384 131 161.623993 L 131 172.727997 C 131.011017 181.00769 137.720291 187.71698 146 187.727997 L 150.188004 187.727997 L 150.188004 235.90802 L 119.008003 245.151978 C 116.037651 246.035095 114.000694 248.765137 114 251.864014 L 114 295.600006 L 7 295.600006 C 5.14173 295.601074 3.36005 296.340546 2.04718 297.65567 C 0.73431 298.970795 -0.002123 300.753723 -0 302.612 L -0 504.988007 C -0.002123 506.846283 0.73431 508.629211 2.04718 509.944336 C 3.36005 511.25946 5.14173 511.998932 7 512 L 505 512 C 508.865997 512 512 508.865997 512 505 L 512 302.612 C 512.003174 300.753418 511.26709 298.969849 509.95401 297.65448 C 508.6409 296.339142 506.858582 295.600006 505 295.600006 Z M 498 469.600006 L 398 469.600006 L 398 459.112 C 397.97525 451.527283 392.282532 445.159302 384.747986 444.287994 L 384.747986 334.924011 C 392.282532 334.052704 397.97525 327.684692 398 320.100006 L 398 309.600006 L 498 309.600006 Z M 293.247986 469.600006 L 293.247986 459.112 C 293.230743 451.80719 287.951202 445.578217 280.747986 444.364014 L 280.747986 334.847992 C 287.951202 333.633789 293.230743 327.404785 293.247986 320.100006 L 293.247986 309.600006 L 323.5 309.600006 L 323.5 320.088013 C 323.512024 327.110962 328.3927 333.186493 335.247986 334.712006 L 335.247986 444.471985 C 328.393555 445.99884 323.513519 452.073578 323.5 459.096008 L 323.5 469.600006 Z M 188.5 469.600006 L 188.5 459.112 C 188.48468 451.805695 183.204681 445.574463 176 444.359985 L 176 334.847992 C 183.204071 333.635315 188.484375 327.405396 188.5 320.100006 L 188.5 309.600006 L 218.748001 309.600006 L 218.748001 320.088013 C 218.765274 327.392792 224.0448 333.621796 231.248001 334.835999 L 231.248001 444.359985 C 224.04567 445.575714 218.766907 451.803802 218.748001 459.108002 L 218.748001 469.600006 Z M 140.5 335.104004 L 162 335.104004 L 162 444.112 L 140.5 444.112 Z M 174.5 320.104004 C 174.5 320.656281 174.052292 321.104004 173.5 321.104004 L 129 321.104004 C 128.447708 321.104004 128 320.656281 128 320.104004 L 128 309.600006 L 174.5 309.600006 Z M 128 459.108002 C 128 458.555725 128.447708 458.108002 129 458.108002 L 173.5 458.108002 C 174.052292 458.108002 174.5 458.555725 174.5 459.108002 L 174.5 469.600006 L 128 469.600006 Z M 245.248001 335.108002 L 266.747986 335.108002 L 266.747986 444.115997 L 245.248001 444.115997 Z M 279.247986 320.108002 C 279.247986 320.660278 278.800293 321.108002 278.247986 321.108002 L 233.748001 321.108002 C 233.196625 321.105804 232.750198 320.659363 232.748001 320.108002 L 232.748001 309.600006 L 279.247986 309.600006 Z M 232.748001 459.108002 C 232.750198 458.556641 233.196625 458.110199 233.748001 458.108002 L 278.247986 458.108002 C 278.800293 458.108002 279.247986 458.555725 279.247986 459.108002 L 279.247986 469.600006 L 232.748001 469.600006 Z M 349.247986 335.108002 L 370.747986 335.108002 L 370.747986 444.115997 L 349.247986 444.115997 Z M 384 320.100006 C 384 320.652283 383.552277 321.100006 383 321.100006 L 338.5 321.100006 C 337.947723 321.100006 337.5 320.652283 337.5 320.100006 L 337.5 309.600006 L 384 309.600006 Z M 337.5 459.108002 C 337.5 458.555725 337.947723 458.108002 338.5 458.108002 L 383 458.108002 C 383.552277 458.108002 384 458.555725 384 459.108002 L 384 469.600006 L 337.5 469.600006 Z M 256 42.947998 L 262.283997 74.623993 L 249.712006 74.623993 Z M 241.199997 88.623993 L 270.799988 88.623993 C 305.933807 88.784882 336.545197 112.606323 345.332001 146.623993 L 166.660004 146.623993 C 175.446335 112.602661 206.062744 88.779846 241.199997 88.623993 Z M 145 172.727997 L 145 161.623993 C 145 161.071716 145.447708 160.623993 146 160.623993 L 366 160.623993 C 366.552277 160.623993 367 161.071716 367 161.623993 L 367 172.727997 C 366.997803 173.279358 366.551361 173.72583 366 173.727997 L 146 173.727997 C 145.448624 173.72583 145.002197 173.279358 145 172.727997 Z M 164.199997 231.755981 L 164.199997 187.727997 L 347.812012 187.727997 L 347.812012 231.755981 L 258 205.119995 C 256.694794 204.732788 255.305222 204.732788 254 205.119995 Z M 128 257.088013 L 256 219.132019 L 384 257.088013 L 384 295.600006 L 128 295.600006 Z M 14 309.600006 L 114 309.600006 L 114 320.088013 C 114.015625 327.393402 119.295929 333.623322 126.5 334.835999 L 126.5 444.359985 C 119.296799 445.574188 114.017273 451.803192 114 459.108002 L 114 469.600006 L 14 469.600006 Z M 498 497.976013 L 14 497.976013 L 14 483.575989 L 498 483.575989 Z"/>
        <path id="path1" fill="#ffffff" stroke="none" d="M 423 451.600006 L 473 451.600006 C 476.865997 451.600006 480 448.466003 480 444.600006 L 480 334.600006 C 480 330.734009 476.865997 327.600006 473 327.600006 L 423 327.600006 C 419.134003 327.600006 416 330.734009 416 334.600006 L 416 444.600006 C 416 448.466003 419.134003 451.600006 423 451.600006 Z M 430 341.600006 L 466 341.600006 L 466 437.600006 L 430 437.600006 Z"/>
        <path id="path2" fill="#ffffff" stroke="none" d="M 89 327.600006 L 39 327.600006 C 37.141731 327.601074 35.36005 328.340546 34.04718 329.65567 C 32.73431 330.970795 31.997877 332.753723 32 334.612 L 32 444.612 C 32.002205 448.477081 35.134922 451.609802 39 451.612 L 89 451.612 C 92.865082 451.609802 95.997795 448.477081 96 444.612 L 96 334.612 C 96.002121 332.753723 95.265686 330.970795 93.95282 329.65567 C 92.639954 328.340546 90.858269 327.601074 89 327.600006 Z M 82 437.600006 L 46 437.600006 L 46 341.600006 L 82 341.600006 Z"/>
    </g>
</svg>
