<?xml version="1.0" encoding="UTF-8"?>
<!-- Generated by Pixelmator Pro 3.5.7 -->
<svg width="681" height="681" viewBox="0 0 681 681" xmlns="http://www.w3.org/2000/svg">
    <path id="Path" fill="#ffffff" stroke="none" d="M 66.536583 381.715973 C 59.191566 381.715973 53.229263 387.678284 53.229263 395.023285 C 53.229263 402.368286 59.191566 408.330597 66.536583 408.330597 C 73.881592 408.330597 79.843895 402.368286 79.843895 395.023285 C 79.843895 387.678284 73.881592 381.715973 66.536583 381.715973 Z"/>
    <path id="path1" fill="#ffffff" stroke="none" d="M 611.627136 427.860107 L 486.174469 470.989349 C 486.730682 467.901611 487.042572 464.751526 487.042572 461.554688 C 487.042572 432.205811 463.167389 408.325409 433.813293 408.325409 L 347.638031 408.325409 C 345.35083 408.325409 343.094849 407.738007 341.103943 406.615204 L 270.798676 367.072723 C 256.898773 359.239075 241.101532 355.09613 225.117157 355.09613 L 130.780762 355.09613 C 125.291496 339.610779 110.497505 328.486694 93.151215 328.486694 L 13.307316 328.486694 C 5.957103 328.486694 0 334.443817 0 341.794006 L 0 581.320496 C 0 588.670715 5.957103 594.627808 13.307316 594.627808 L 93.151215 594.627808 C 110.102448 594.627808 124.636528 583.976807 130.406494 569.016418 C 145.470795 570.887756 162.900269 575.34259 173.852814 581.913086 L 243.445908 623.669983 C 269.811035 639.493225 299.996796 647.857117 330.749176 647.857117 C 355.118195 647.857117 378.728302 642.742065 400.929688 632.657654 L 649.303467 523.293335 C 676.812195 512.132874 690.39502 479.1297 674.670532 450.04071 C 663.104614 428.634644 636.016907 419.111603 611.627136 427.860107 Z M 106.458527 554.76825 C 106.427338 562.076904 100.465042 568.013184 93.151215 568.013184 L 26.614632 568.013184 L 26.614632 355.101349 L 93.151215 355.101349 C 100.485832 355.101349 106.458527 361.068848 106.458527 368.408661 Z M 639.192993 498.679993 C 639.052673 498.731995 638.912292 498.794373 638.771973 498.851532 C 638.771973 498.851532 390.029114 608.377014 389.98233 608.397766 C 371.24292 616.922791 351.313141 621.242432 330.749176 621.242432 C 304.820709 621.242432 279.370453 614.193726 257.143097 600.850037 L 187.544785 559.09314 C 172.646835 550.157471 151.313538 544.709778 133.073166 542.52655 L 133.073166 381.715973 L 225.117157 381.715973 C 236.532349 381.715973 247.812378 384.668518 257.746094 390.266968 L 328.051331 429.809448 C 334.008423 433.16748 340.786865 434.945251 347.638031 434.945251 L 433.813293 434.945251 C 448.487732 434.945251 460.427948 446.880249 460.427948 461.559875 C 460.427948 476.182312 448.482544 488.1745 433.813293 488.1745 L 298.536133 488.1745 C 291.185913 488.1745 285.22879 494.131592 285.22879 501.481812 C 285.22879 508.826843 291.185913 514.783936 298.536133 514.783936 L 433.813293 514.783936 C 442.541046 514.783936 451.133606 512.616272 458.759338 508.551331 C 458.759338 508.551331 620.500366 452.951691 620.562744 452.930908 C 632.487366 448.626831 645.971436 452.910095 651.257996 462.693054 C 659.185181 477.357117 652.63031 493.299896 639.192993 498.679993 Z"/>
    <path id="path2" fill="#ffffff" stroke="none" d="M 387.570374 355.709534 C 390.075897 357.877167 393.179199 358.958374 396.28772 358.958374 C 399.39621 358.958374 402.50473 357.877167 405.005035 355.709534 C 513.579224 261.612244 580.739563 213.991791 580.739563 139.990662 C 580.739563 81.448853 539.294556 32.934326 481.069885 32.934326 C 442.832123 32.934326 413.550842 54.974548 394.691864 88.050537 C 375.874512 55.047363 346.62439 32.934326 308.329468 32.934326 C 263.755157 32.934326 226.489487 61.820557 213.390091 106.519653 C 211.321213 113.573547 215.365402 120.965332 222.419312 123.034241 C 229.473236 125.103088 236.865021 121.058899 238.928696 114.005005 C 248.623291 80.923828 275.861694 59.54895 308.329468 59.54895 C 346.291718 59.54895 372.921936 93.259094 381.867981 124.64563 C 383.463837 130.4104 388.713989 134.402588 394.691864 134.402588 C 400.674957 134.402588 405.919922 130.4104 407.515778 124.64563 C 407.697693 123.99585 426.182404 59.54895 481.069885 59.54895 C 522.71759 59.54895 554.124939 94.127197 554.124939 139.990662 C 554.124939 199.187408 496.258942 241.86438 396.277313 328.070862 C 335.359955 275.75647 286.970184 238.932617 259.466675 202.909302 C 255.006638 197.066559 246.658386 195.943756 240.815643 200.403778 C 234.9729 204.863831 233.855286 213.212067 238.31012 219.060028 C 269.312012 259.662933 321.647186 298.56604 387.570374 355.709534 Z"/>
    <path id="path3" fill="#ffffff" stroke="none" d="M 224.893646 150.16864 C 217.54863 150.16864 211.586319 156.130981 211.586319 163.476013 C 211.586319 170.820984 217.54863 176.783295 224.893646 176.783295 C 232.238663 176.783295 238.200958 170.820984 238.200958 163.476013 C 238.200958 156.130981 232.238663 150.16864 224.893646 150.16864 Z"/>
</svg>
