<?xml version="1.0" encoding="UTF-8"?>
<!-- Generated by Pixelmator Pro 3.5.7 -->
<svg width="512" height="512" viewBox="0 0 512 512" xmlns="http://www.w3.org/2000/svg">
    <g id="Group">
        <clipPath id="clipPath1">
            <path d="M 0 0.001526 L 511.998474 0.001526 L 511.998474 512 L 0 512 Z"/>
        </clipPath>
        <g id="g1" clip-path="url(#clipPath1)">
            <path id="Path" fill="#000000" stroke="none" d="M 49.999851 287.000671 C 55.519833 287.000671 59.999821 291.480652 59.999821 297.000641 C 59.999821 302.52063 55.519833 307.00061 49.999851 307.00061 C 44.479866 307.00061 39.999882 302.52063 39.999882 297.000641 C 39.999882 291.480652 44.479866 287.000671 49.999851 287.000671"/>
            <path id="path1" fill="none" stroke="#000000" stroke-width="29.99991" stroke-linecap="round" stroke-linejoin="round" d="M 89.999733 417.060303 C 89.969734 428.081238 81.029755 437.000214 69.999794 437.000214 L 9.99997 437.000214 L 9.99997 257.000763 L 69.999794 257.000763 C 81.049759 257.000763 89.999733 265.951721 89.999733 277.000702 Z"/>
            <path id="path2" fill="none" stroke="#000000" stroke-width="29.99991" stroke-linecap="round" stroke-linejoin="round" d="M 340.05899 373.350403 L 462.938599 331.111542 C 476.048584 326.380554 491.578522 330.850525 498.198517 343.100525 C 507.188477 359.731445 499.318512 378.071411 484.048553 384.180389 L 297.199097 466.451141 C 262.02298 482.455383 221.2258 480.13678 188.089432 460.250153 L 135.789597 428.871246 C 123.719635 421.63028 104.029694 417.571289 89.999733 417.060272"/>
            <path id="path3" fill="none" stroke="#000000" stroke-width="29.99991" stroke-linecap="round" stroke-linejoin="round" d="M 89.999733 277.000702 L 169.169495 277.000702 C 179.479462 277.000702 189.609436 279.650696 198.589401 284.710693 L 251.429245 314.430603 C 254.42923 316.120605 257.799225 317.00058 261.239227 317.00058 L 325.999023 317.00058 C 342.56897 317.00058 355.998932 330.430542 355.998932 347.000488 C 355.998932 358.200439 349.868958 367.960449 340.768982 373.110413 C 336.408997 375.590393 331.369019 377.000397 325.999023 377.000397 L 224.339325 377.000397"/>
            <path id="path4" fill="none" stroke="#000000" stroke-width="29.99991" stroke-linecap="round" stroke-linejoin="round" d="M 169.950485 83.011292 C 178.049469 55.370361 201.081406 34.901428 231.69931 34.901428 C 281.019165 34.901428 296.599121 91.151245 296.599121 91.151245 C 296.599121 91.151245 312.179077 34.901428 361.508911 34.901428 C 399.928802 34.901428 426.408752 67.151337 426.408752 105.35022 C 426.408752 155.901062 378.748871 189.73996 297.799103 259.900757 C 249.034256 217.634888 209.47937 188.101959 187.033447 158.699066"/>
            <path id="path5" fill="#000000" stroke="none" d="M 168.999496 113.00119 C 174.519485 113.00119 178.999466 117.481171 178.999466 123.00116 C 178.999466 128.521149 174.519485 133.001129 168.999496 133.001129 C 163.479507 133.001129 158.999527 128.521149 158.999527 123.00116 C 158.999527 117.481171 163.479507 113.00119 168.999496 113.00119"/>
        </g>
    </g>
</svg>
