<?xml version="1.0" standalone="no"?>
<!DOCTYPE svg PUBLIC "-//W3C//DTD SVG 20010904//EN"
 "http://www.w3.org/TR/2001/REC-SVG-20010904/DTD/svg10.dtd">
<svg version="1.0" xmlns="http://www.w3.org/2000/svg"
 width="337.000000pt" height="337.000000pt" viewBox="0 0 337.000000 337.000000"
 preserveAspectRatio="xMidYMid meet">
<metadata>
Created by potrace 1.14, written by Peter Selinger 2001-2017
</metadata>
<g transform="translate(0.000000,337.000000) scale(0.100000,-0.100000)"
fill="#000000" stroke="none">
<path d="M3048 3365 c-2 -2 -30 -6 -63 -10 -282 -31 -720 -189 -1059 -382 -80
-46 -266 -162 -276 -173 -3 -3 -32 -25 -65 -49 -169 -124 -351 -303 -474 -466
l-53 -70 -116 -1 c-121 -1 -152 -4 -261 -30 -208 -48 -410 -219 -525 -444 -71
-139 -128 -309 -140 -422 -12 -102 25 -115 248 -83 22 3 61 8 86 10 63 6 149
15 187 20 36 5 158 17 187 19 18 1 20 -7 24 -64 6 -123 11 -132 166 -288 77
-78 153 -149 168 -157 25 -14 132 -32 152 -26 6 1 20 0 33 -4 20 -5 22 -10 17
-38 -3 -17 -7 -52 -9 -77 -3 -25 -7 -61 -9 -80 -3 -19 -8 -62 -11 -95 -8 -88
-15 -145 -20 -185 -2 -19 -7 -60 -10 -90 -3 -30 -7 -64 -9 -75 -5 -31 13 -71
37 -82 29 -14 83 -7 197 23 369 98 622 302 717 579 33 93 45 180 46 311 l0
120 80 60 c124 91 350 321 457 466 157 210 297 449 395 678 20 47 42 99 49
115 59 136 130 390 162 580 14 83 12 308 -3 352 -8 24 -18 43 -21 44 -4 0 -16
3 -27 5 -23 5 -252 13 -257 9z m-710 -794 c93 -28 169 -93 212 -177 30 -61 33
-79 34 -169 0 -67 -5 -90 -28 -141 -90 -199 -345 -274 -521 -153 -84 57 -136
132 -155 222 -56 273 193 501 458 418z"/>
<path d="M496 1068 c-115 -37 -208 -126 -250 -236 -30 -81 -63 -201 -72 -262
-9 -65 -10 -71 -17 -115 -8 -45 -14 -111 -22 -237 l-6 -88 90 5 c49 3 107 7
128 10 21 2 61 7 89 10 28 3 61 8 74 10 13 3 42 7 64 11 79 11 227 54 288 83
108 51 190 159 219 287 12 52 11 58 -6 70 -16 12 -22 12 -39 -1 -65 -48 -141
-70 -241 -69 -77 0 -111 13 -170 66 -102 89 -110 245 -21 403 41 75 8 91 -108
53z"/>
</g>
</svg>
